<svg width="24" height="25" viewBox="0 0 24 25" fill="none" xmlns="http://www.w3.org/2000/svg">
<path d="M9 2.04095C6.38 2.04095 4.25 4.17095 4.25 6.79095C4.25 9.36095 6.26 11.441 8.88 11.531C8.96 11.521 9.04 11.521 9.1 11.531C9.12 11.531 9.13 11.531 9.15 11.531C9.16 11.531 9.16 11.531 9.17 11.531C11.73 11.441 13.74 9.36095 13.75 6.79095C13.75 4.17095 11.62 2.04095 9 2.04095Z" fill="#017189"/>
<path d="M14.08 14.191C11.29 12.331 6.74 12.331 3.93 14.191C2.66 15.041 1.96 16.191 1.96 17.421C1.96 18.651 2.66 19.791 3.92 20.631C5.32 21.571 7.16 22.041 9 22.041C10.84 22.041 12.68 21.571 14.08 20.631C15.34 19.781 16.04 18.641 16.04 17.401C16.03 16.171 15.34 15.031 14.08 14.191Z" fill="#017189"/>
<path d="M19.99 7.38096C20.15 9.32096 18.77 11.021 16.86 11.251C16.85 11.251 16.85 11.251 16.84 11.251H16.81C16.75 11.251 16.69 11.251 16.64 11.271C15.67 11.321 14.78 11.011 14.11 10.441C15.14 9.52096 15.73 8.14096 15.61 6.64096C15.54 5.83096 15.26 5.09096 14.84 4.46096C15.22 4.27096 15.66 4.15096 16.11 4.11096C18.07 3.94096 19.82 5.40096 19.99 7.38096Z" fill="#017189"/>
<path d="M21.99 16.631C21.91 17.601 21.29 18.441 20.25 19.011C19.25 19.561 17.99 19.821 16.74 19.791C17.46 19.141 17.88 18.331 17.96 17.471C18.06 16.231 17.47 15.041 16.29 14.091C15.62 13.561 14.84 13.141 13.99 12.831C16.2 12.191 18.98 12.621 20.69 14.001C21.61 14.741 22.08 15.671 21.99 16.631Z" fill="#017189"/>
</svg>
