<svg width="16" height="17" viewBox="0 0 16 17" fill="none" xmlns="http://www.w3.org/2000/svg">
<path d="M3.33334 7.20762H4.66667C6 7.20762 6.66667 6.54095 6.66667 5.20762V3.87428C6.66667 2.54095 6 1.87428 4.66667 1.87428H3.33334C2 1.87428 1.33334 2.54095 1.33334 3.87428V5.20762C1.33334 6.54095 2 7.20762 3.33334 7.20762Z" stroke="white" stroke-width="1.5" stroke-miterlimit="10" stroke-linecap="round" stroke-linejoin="round"/>
<path d="M11.3333 7.20762H12.6667C14 7.20762 14.6667 6.54095 14.6667 5.20762V3.87428C14.6667 2.54095 14 1.87428 12.6667 1.87428H11.3333C10 1.87428 9.33333 2.54095 9.33333 3.87428V5.20762C9.33333 6.54095 10 7.20762 11.3333 7.20762Z" stroke="white" stroke-width="1.5" stroke-miterlimit="10" stroke-linecap="round" stroke-linejoin="round"/>
<path d="M11.3333 15.2076H12.6667C14 15.2076 14.6667 14.541 14.6667 13.2076V11.8743C14.6667 10.5409 14 9.87428 12.6667 9.87428H11.3333C10 9.87428 9.33333 10.5409 9.33333 11.8743V13.2076C9.33333 14.541 10 15.2076 11.3333 15.2076Z" stroke="white" stroke-width="1.5" stroke-miterlimit="10" stroke-linecap="round" stroke-linejoin="round"/>
<path d="M3.33334 15.2076H4.66667C6 15.2076 6.66667 14.541 6.66667 13.2076V11.8743C6.66667 10.5409 6 9.87428 4.66667 9.87428H3.33334C2 9.87428 1.33334 10.5409 1.33334 11.8743V13.2076C1.33334 14.541 2 15.2076 3.33334 15.2076Z" stroke="white" stroke-width="1.5" stroke-miterlimit="10" stroke-linecap="round" stroke-linejoin="round"/>
</svg>
