<svg width="16" height="17" viewBox="0 0 16 17" fill="none" xmlns="http://www.w3.org/2000/svg">
<path d="M14.1667 6.64095C12.6267 4.22095 10.3733 2.82761 8 2.82761C6.81334 2.82761 5.66 3.17428 4.60667 3.82095C3.55334 4.47428 2.60667 5.42761 1.83334 6.64095C1.16667 7.68761 1.16667 9.38761 1.83334 10.4343C3.37334 12.8609 5.62667 14.2476 8 14.2476C9.18667 14.2476 10.34 13.9009 11.3933 13.2543C12.4467 12.6009 13.3933 11.6476 14.1667 10.4343C14.8333 9.39428 14.8333 7.68761 14.1667 6.64095ZM8 11.2343C6.50667 11.2343 5.30667 10.0276 5.30667 8.54095C5.30667 7.05428 6.50667 5.84761 8 5.84761C9.49334 5.84761 10.6933 7.05428 10.6933 8.54095C10.6933 10.0276 9.49334 11.2343 8 11.2343Z" fill="white"/>
<path d="M8 6.63428C6.95333 6.63428 6.1 7.48761 6.1 8.54095C6.1 9.58761 6.95333 10.4409 8 10.4409C9.04666 10.4409 9.90666 9.58761 9.90666 8.54095C9.90666 7.49428 9.04666 6.63428 8 6.63428Z" fill="white"/>
</svg>
