<svg width="16" height="17" viewBox="0 0 16 17" fill="none" xmlns="http://www.w3.org/2000/svg">
<path d="M2.77993 10.741L5.79993 13.761C7.03993 15.001 9.05326 15.001 10.2999 13.761L13.2266 10.8343C14.4666 9.59432 14.4666 7.58099 13.2266 6.33432L10.1999 3.32099C9.56659 2.68765 8.69326 2.34765 7.79993 2.39432L4.46659 2.55432C3.13326 2.61432 2.07326 3.67432 2.00659 5.00099L1.84659 8.33432C1.80659 9.23432 2.14659 10.1077 2.77993 10.741Z" stroke="white" stroke-width="1.5" stroke-linecap="round" stroke-linejoin="round"/>
<path d="M6.33326 8.54098C7.25374 8.54098 7.99993 7.79478 7.99993 6.87431C7.99993 5.95383 7.25374 5.20764 6.33326 5.20764C5.41279 5.20764 4.6666 5.95383 4.6666 6.87431C4.6666 7.79478 5.41279 8.54098 6.33326 8.54098Z" stroke="white" stroke-width="1.5" stroke-linecap="round"/>
</svg>
