<svg width="16" height="17" viewBox="0 0 16 17" fill="none" xmlns="http://www.w3.org/2000/svg">
<path d="M14 4.48665C11.78 4.26665 9.54667 4.15332 7.32 4.15332C6 4.15332 4.68 4.21999 3.36 4.35332L2 4.48665" stroke="#EF4444" stroke-width="1.5" stroke-linecap="round" stroke-linejoin="round"/>
<path d="M5.66666 3.81331L5.81332 2.93998C5.91999 2.30665 5.99999 1.83331 7.12666 1.83331H8.87332C9.99999 1.83331 10.0867 2.33331 10.1867 2.94665L10.3333 3.81331" stroke="#EF4444" stroke-width="1.5" stroke-linecap="round" stroke-linejoin="round"/>
<path d="M12.5667 6.59332L12.1333 13.3067C12.06 14.3533 12 15.1667 10.14 15.1667H5.85999C3.99999 15.1667 3.93999 14.3533 3.86665 13.3067L3.43332 6.59332" stroke="#EF4444" stroke-width="1.5" stroke-linecap="round" stroke-linejoin="round"/>
<path d="M6.88666 11.5H9.10666" stroke="#EF4444" stroke-width="1.5" stroke-linecap="round" stroke-linejoin="round"/>
<path d="M6.33334 8.83331H9.66668" stroke="#EF4444" stroke-width="1.5" stroke-linecap="round" stroke-linejoin="round"/>
</svg>
