<svg width="16" height="17" viewBox="0 0 16 17" fill="none" xmlns="http://www.w3.org/2000/svg">
<path d="M3.82667 11.2076C3.9 10.8809 3.76667 10.4143 3.53333 10.1809L1.91333 8.56095C1.40667 8.05428 1.20667 7.51428 1.35333 7.04761C1.50667 6.58095 1.98 6.26095 2.68667 6.14095L4.76667 5.79428C5.06667 5.74095 5.43333 5.47428 5.57333 5.20095L6.72 2.90095C7.05333 2.24095 7.50667 1.87428 8 1.87428C8.49333 1.87428 8.94667 2.24095 9.28 2.90095L10.4267 5.20095C10.5133 5.37428 10.6933 5.54095 10.8867 5.65428L3.70667 12.8343C3.61333 12.9276 3.45333 12.8409 3.48 12.7076L3.82667 11.2076Z" fill="#F59E0B"/>
<path d="M12.4667 10.1809C12.2267 10.4209 12.0933 10.8809 12.1733 11.2076L12.6333 13.2143C12.8267 14.0476 12.7067 14.6743 12.2933 14.9743C12.1267 15.0943 11.9267 15.1543 11.6933 15.1543C11.3533 15.1543 10.9533 15.0276 10.5133 14.7676L8.56 13.6076C8.25334 13.4276 7.74667 13.4276 7.44 13.6076L5.48667 14.7676C4.74667 15.2009 4.11334 15.2743 3.70667 14.9743C3.55334 14.8609 3.44 14.7076 3.36667 14.5076L11.4733 6.40094C11.78 6.09428 12.2133 5.95428 12.6333 6.02761L13.3067 6.14094C14.0133 6.26094 14.4867 6.58094 14.64 7.04761C14.7867 7.51428 14.5867 8.05428 14.08 8.56094L12.4667 10.1809Z" fill="#F59E0B"/>
</svg>
