<svg width="16" height="17" viewBox="0 0 16 17" fill="none" xmlns="http://www.w3.org/2000/svg">
<path d="M6.10667 7.74665C6.04001 7.73998 5.96001 7.73998 5.88668 7.74665C4.30001 7.69331 3.04001 6.39331 3.04001 4.79331C3.04001 3.15998 4.36001 1.83331 6.00001 1.83331C7.63334 1.83331 8.96001 3.15998 8.96001 4.79331C8.95334 6.39331 7.69334 7.69331 6.10667 7.74665Z" stroke="#55676B" stroke-width="1.5" stroke-linecap="round" stroke-linejoin="round"/>
<path d="M10.94 3.16669C12.2333 3.16669 13.2733 4.21335 13.2733 5.50002C13.2733 6.76002 12.2733 7.78669 11.0267 7.83335C10.9733 7.82669 10.9133 7.82669 10.8533 7.83335" stroke="#55676B" stroke-width="1.5" stroke-linecap="round" stroke-linejoin="round"/>
<path d="M2.77332 10.2067C1.15999 11.2867 1.15999 13.0467 2.77332 14.12C4.60666 15.3467 7.61332 15.3467 9.44666 14.12C11.06 13.04 11.06 11.28 9.44666 10.2067C7.61999 8.98669 4.61332 8.98669 2.77332 10.2067Z" stroke="#55676B" stroke-width="1.5" stroke-linecap="round" stroke-linejoin="round"/>
<path d="M12.2267 13.8333C12.7067 13.7333 13.16 13.54 13.5333 13.2533C14.5733 12.4733 14.5733 11.1866 13.5333 10.4066C13.1667 10.1266 12.72 9.93998 12.2467 9.83331" stroke="#55676B" stroke-width="1.5" stroke-linecap="round" stroke-linejoin="round"/>
</svg>
