<svg width="16" height="17" viewBox="0 0 16 17" fill="none" xmlns="http://www.w3.org/2000/svg">
<path d="M8.66667 6.54095H4.66667" stroke="white" stroke-width="1.5" stroke-linecap="round" stroke-linejoin="round"/>
<path d="M14.6667 7.85426V9.22763C14.6667 9.5943 14.3734 9.89427 14 9.9076H12.6933C11.9733 9.9076 11.3134 9.38094 11.2534 8.66094C11.2134 8.24094 11.3733 7.8476 11.6533 7.57427C11.9 7.32094 12.24 7.17429 12.6133 7.17429H14C14.3734 7.18762 14.6667 7.48759 14.6667 7.85426Z" stroke="white" stroke-width="1.5" stroke-linecap="round" stroke-linejoin="round"/>
<path d="M11.6533 7.57429C11.3733 7.84762 11.2133 8.24096 11.2533 8.66096C11.3133 9.38096 11.9733 9.90762 12.6933 9.90762H14V10.8743C14 12.8743 12.6667 14.2076 10.6667 14.2076H4.66667C2.66667 14.2076 1.33334 12.8743 1.33334 10.8743V6.20763C1.33334 4.3943 2.42667 3.12763 4.12667 2.9143C4.3 2.88763 4.48 2.8743 4.66667 2.8743H10.6667C10.84 2.8743 11.0067 2.88096 11.1667 2.90762C12.8867 3.10762 14 4.38096 14 6.20763V7.17431H12.6133C12.24 7.17431 11.9 7.32096 11.6533 7.57429Z" stroke="white" stroke-width="1.5" stroke-linecap="round" stroke-linejoin="round"/>
</svg>
